# xmcd
#
# Track frame offsets: 
#        150
#        16697
#        42630
#        67187
#        87652
#        106752
#        125582
#        136107
#        161037
#        195262
#        216602
#        238615
#
# Disc length: 3494 seconds
#
# Revision: 4
# Processed by: cddbd v1.5.2PL0 Copyright (c) Steve Scherf et al.
# Submitted via: ExactAudioCopy v1.0b4
#
DISCID=ab0da40c
DTITLE=Snowy White and The White Flames - Melting
DYEAR=1999
DGENRE=Blues Rock
TTITLE0=Discoveri
TTITLE1=Long distance loving
TTITLE2=I'll be moving on
TTITLE3=The more you live
TTITLE4=Little wing
TTITLE5=That's when I'll stop loving you
TTITLE6=Terpisah
TTITLE7=The first move
TTITLE8=Like the sun
TTITLE9=That ain't right
TTITLE10=Melting
TTITLE11=Snowy White and the White Flames with David Gilmour - Love, pai
TTITLE11=n and sorrow
EXTD=
EXTT0=
EXTT1=
EXTT2=
EXTT3=
EXTT4=
EXTT5=
EXTT6=
EXTT7=
EXTT8=
EXTT9=
EXTT10=
EXTT11=
PLAYORDER=
